{"glyphs":{":":{"x_min":0,"x_max":241,"ha":241,"o":"m 189 312 l 73 312 l 93 433 l 209 433 z m 137 0 l 21 0 l 41 122 l 158 122 z"},"$":{"x_min":0,"x_max":586,"ha":586,"o":"m 260 -75 l 195 -75 l 211 19 q 66 49 26 185 l 118 217 q 142 122 226 104 l 258 302 q 94 344 94 476 q 94 556 153 608 q 211 660 297 660 q 306 660 318 659 l 330 730 l 395 730 l 381 650 q 501 627 542 520 l 452 488 q 424 555 367 566 l 338 395 q 408 372 437 355 q 466 339 491 298 q 516 257 516 209 q 516 125 453 68 q 391 10 296 10 q 287 10 274 12 z m 304 574 q 248 574 221 549 q 194 523 194 490 q 194 429 276 408 z m 289 95 q 298 95 303 95 q 352 95 383 123 q 415 151 415 191 q 415 266 320 284 z"},"?":{"x_min":0,"x_max":484,"ha":484,"o":"m 271 186 l 179 186 q 190 275 208 304 q 225 332 292 376 q 377 433 377 495 q 377 534 351 559 q 325 583 286 583 q 240 583 206 550 q 172 517 158 460 l 59 499 q 91 586 153 634 q 214 682 293 682 q 383 682 439 629 q 495 576 495 498 q 495 452 469 401 q 443 350 355 306 q 301 278 287 253 q 273 228 271 186 z m 258 0 l 138 0 l 159 124 l 279 124 z"},"<":{"x_min":0,"x_max":586,"ha":586,"o":"m 524 596 l 524 484 l 211 333 l 524 181 l 524 69 l 91 285 l 91 381 z"},"'":{"x_min":0,"x_max":210,"ha":210,"o":"m 167 402 l 94 402 l 122 667 l 228 667 z"},"=":{"x_min":0,"x_max":586,"ha":586,"o":"m 555 451 l 555 358 l 61 358 l 61 451 z m 555 305 l 555 212 l 61 212 l 61 305 z"},"a":{"x_min":0,"x_max":536,"ha":536,"o":"m 438 0 l 330 0 q 329 13 329 21 q 329 57 337 107 q 313 51 267 19 q 221 -13 166 -13 q 100 -13 58 29 q 16 70 16 130 q 16 214 91 263 q 165 312 324 312 q 344 312 372 311 q 375 333 375 346 q 375 386 347 407 q 320 427 279 427 q 200 427 164 358 l 66 389 q 128 510 284 510 q 376 510 430 468 q 484 426 484 356 q 484 327 460 199 q 436 65 436 29 q 436 16 438 0 z m 362 253 q 234 247 185 220 q 135 193 135 141 q 135 111 155 93 q 175 74 209 74 q 259 74 302 117 q 344 161 362 253 z"},"L":{"x_min":0,"x_max":488,"ha":488,"o":"m 432 0 l 32 0 l 143 667 l 270 667 l 176 104 l 449 104 z"},"3":{"x_min":0,"x_max":586,"ha":586,"o":"m 124 193 q 133 144 172 112 q 212 81 268 81 q 327 81 365 114 q 403 146 403 197 q 403 235 382 260 q 361 286 334 290 q 308 294 214 294 l 229 389 q 246 388 258 388 q 356 388 396 419 q 435 451 435 497 q 435 538 403 562 q 372 586 327 586 q 228 586 181 488 l 80 534 q 168 683 330 683 q 428 683 491 632 q 554 582 554 506 q 554 447 514 403 q 474 358 405 347 q 463 331 493 288 q 522 245 522 192 q 522 109 455 47 q 388 -16 265 -16 q 165 -16 101 35 q 37 86 18 166 z"},";":{"x_min":0,"x_max":241,"ha":241,"o":"m 189 312 l 73 312 l 93 433 l 210 433 z m 35 -144 l -7 -144 l 76 0 l 21 0 l 41 122 l 158 122 l 139 10 z"},"J":{"x_min":0,"x_max":375,"ha":375,"o":"m -42 -1 l -22 98 q 14 94 44 94 q 120 94 145 124 q 170 153 183 226 l 256 667 l 378 667 l 308 245 q 292 147 270 99 q 248 50 197 19 q 146 -12 61 -12 q 16 -12 -42 -1 z"},"V":{"x_min":0,"x_max":543,"ha":543,"o":"m 309 0 l 176 0 l 64 667 l 189 667 l 274 140 l 505 667 l 611 667 z"},"\"":{"x_min":0,"x_max":375,"ha":375,"o":"m 167 402 l 94 402 l 122 667 l 228 667 z m 332 402 l 259 402 l 287 667 l 393 667 z"},"7":{"x_min":0,"x_max":586,"ha":586,"o":"m 274 0 l 138 0 q 139 3 148 46 q 173 157 210 236 q 247 314 314 401 q 381 487 466 561 l 94 561 l 126 667 l 584 667 l 568 573 q 543 557 461 452 q 379 346 332 233 q 284 120 274 0 z"},"S":{"x_min":0,"x_max":553,"ha":553,"o":"m 544 540 l 435 500 q 400 583 308 583 q 252 583 221 556 q 190 530 190 492 q 190 462 211 443 q 232 424 281 411 l 372 384 q 412 373 447 348 q 483 324 500 287 q 518 250 518 210 q 518 119 450 52 q 383 -14 253 -14 q 52 -14 -8 152 l 101 190 q 141 86 260 86 q 329 86 362 117 q 395 149 395 189 q 395 212 383 229 q 370 246 351 254 q 332 263 275 279 q 195 302 156 323 q 117 343 92 382 q 67 421 67 475 q 67 566 133 625 q 199 683 313 683 q 481 683 544 540 z"},"}":{"x_min":0,"x_max":293,"ha":293,"o":"m 188 247 q 143 272 143 328 q 143 339 147 364 l 175 529 q 179 553 179 565 q 179 587 164 599 q 149 611 91 611 l 101 666 l 145 667 q 211 667 240 642 q 268 617 268 566 q 268 551 264 525 l 236 358 q 232 338 232 328 q 232 280 277 270 l 269 218 q 210 207 199 136 l 169 -39 q 157 -111 117 -142 q 78 -173 1 -173 q -13 -173 -40 -172 l -30 -117 q 31 -117 51 -102 q 72 -86 80 -38 l 108 132 q 123 219 188 247 z"},"Z":{"x_min":0,"x_max":526,"ha":526,"o":"m 468 0 l -21 0 l -5 98 l 396 562 l 83 562 l 100 667 l 567 667 l 555 583 l 139 104 l 485 104 z"},"x":{"x_min":0,"x_max":457,"ha":457,"o":"m 425 0 l 300 0 l 211 190 l 62 0 l -47 0 l 169 263 l 53 497 l 179 497 l 248 343 l 368 497 l 475 497 l 291 273 z"},")":{"x_min":0,"x_max":293,"ha":293,"o":"m 98 667 l 160 667 q 264 489 264 309 q 264 165 192 35 q 121 -95 32 -173 l -43 -173 q 57 -62 115 75 q 173 213 173 349 q 173 507 98 667 z"},"&":{"x_min":0,"x_max":693,"ha":693,"o":"m 629 -17 q 610 -19 597 -19 q 547 -19 521 -4 q 494 10 460 52 q 376 -23 258 -23 q 153 -23 88 36 q 24 96 24 185 q 24 336 217 396 q 176 459 176 521 q 176 586 222 636 q 269 686 345 686 q 426 686 474 642 q 522 598 522 532 q 522 412 365 362 l 483 195 q 574 297 605 407 l 696 381 q 643 220 538 125 q 565 79 623 79 q 631 79 646 79 z m 323 432 l 349 443 q 423 477 423 528 q 423 556 403 573 q 383 591 352 591 q 319 591 300 570 q 282 548 282 522 q 282 481 323 432 z m 267 323 q 141 277 141 188 q 141 142 176 108 q 211 74 265 74 q 335 74 406 125 z"},"_":{"x_min":0,"x_max":500,"ha":500,"o":"m 14 -52 l 514 -52 l 514 -154 l 14 -154 z"},"v":{"x_min":0,"x_max":447,"ha":447,"o":"m 246 0 l 144 0 l 39 497 l 158 497 l 224 149 l 386 497 l 482 497 z"},"O":{"x_min":0,"x_max":646,"ha":646,"o":"m 51 284 q 51 437 137 561 q 223 686 367 686 q 487 686 556 605 q 625 524 625 384 q 625 227 538 104 q 450 -18 305 -18 q 199 -18 125 65 q 51 147 51 284 z m 177 263 q 177 165 216 124 q 254 82 310 82 q 406 82 452 189 q 497 296 497 411 q 497 585 359 585 q 268 585 222 475 q 177 365 177 263 z"},"(":{"x_min":0,"x_max":293,"ha":293,"o":"m 195 -173 l 133 -173 q 30 5 30 184 q 30 327 100 456 q 170 585 261 667 l 336 667 q 234 553 177 415 q 121 278 121 145 q 121 -15 195 -173 z"},"C":{"x_min":0,"x_max":591,"ha":591,"o":"m 559 183 q 474 -18 295 -18 q 187 -18 118 61 q 50 139 50 274 q 50 442 138 563 q 225 684 362 684 q 469 684 532 622 q 594 560 603 450 l 495 431 q 480 584 360 584 q 263 584 220 469 q 177 354 177 250 q 177 168 213 127 q 249 86 305 86 q 356 86 398 126 q 439 166 461 223 z"},"W":{"x_min":0,"x_max":870,"ha":870,"o":"m 650 -5 l 530 -5 l 472 497 l 266 -5 l 150 -5 l 72 667 l 201 667 l 246 163 l 450 667 l 569 667 l 622 163 l 825 667 l 930 667 z"},"A":{"x_min":0,"x_max":603,"ha":603,"o":"m 562 0 l 428 0 l 401 161 l 159 161 l 85 0 l -28 0 l 292 667 l 439 667 z m 390 254 l 337 550 l 200 254 z"},"f":{"x_min":0,"x_max":315,"ha":315,"o":"m 150 0 l 41 0 l 108 406 l 41 406 l 56 497 l 124 497 q 143 599 192 645 q 241 690 328 690 q 373 690 397 684 l 388 592 q 364 598 337 598 q 243 598 234 497 l 341 497 l 326 406 l 218 406 z"},"Q":{"x_min":0,"x_max":641,"ha":641,"o":"m 546 -35 l 536 -136 q 508 -141 460 -141 q 403 -141 373 -126 q 344 -111 330 -87 q 316 -62 316 -14 q 304 -16 294 -16 q 180 -16 115 66 q 50 148 50 280 q 50 432 135 558 q 219 683 365 683 q 484 683 551 604 q 617 524 617 379 q 617 254 560 151 q 503 48 408 10 q 409 -41 491 -41 q 520 -41 546 -35 z m 177 254 q 177 174 209 129 q 242 84 297 84 q 397 84 445 186 q 493 288 493 398 q 493 586 361 586 q 273 586 225 480 q 177 374 177 254 z"},"w":{"x_min":0,"x_max":699,"ha":699,"o":"m 503 0 l 401 0 l 363 353 l 220 0 l 119 0 l 45 497 l 158 497 l 203 153 l 346 497 l 445 497 l 481 154 l 634 497 l 731 497 z"},"-":{"x_min":0,"x_max":241,"ha":241,"o":"m 232 202 l -7 202 l 8 292 l 248 292 z"},"E":{"x_min":0,"x_max":537,"ha":537,"o":"m 465 0 l 32 0 l 143 667 l 564 667 l 547 562 l 245 562 l 216 389 l 466 389 l 450 291 l 200 291 l 168 104 l 482 104 z"},"s":{"x_min":0,"x_max":458,"ha":458,"o":"m 86 146 q 115 72 204 72 q 249 72 274 90 q 300 108 300 137 q 300 158 282 170 q 265 182 224 194 q 157 212 125 228 q 92 244 70 276 q 48 308 48 350 q 48 415 98 463 q 147 511 237 511 q 383 511 442 394 l 348 363 q 315 428 240 428 q 206 428 183 413 q 159 397 159 371 q 159 352 171 340 q 182 328 217 318 q 296 294 334 277 q 373 260 395 228 q 417 196 417 154 q 417 84 363 37 q 309 -11 203 -11 q 34 -11 -18 121 z"},">":{"x_min":0,"x_max":586,"ha":586,"o":"m 91 69 l 91 182 l 405 333 l 92 485 l 91 596 l 524 380 l 524 285 z"},"l":{"x_min":0,"x_max":248,"ha":248,"o":"m 140 0 l 25 0 l 137 667 l 251 667 z"},"8":{"x_min":0,"x_max":586,"ha":586,"o":"m 191 334 q 92 388 92 484 q 92 561 159 622 q 226 683 345 683 q 443 683 505 638 q 567 592 567 520 q 567 406 426 357 q 480 335 511 292 q 541 249 541 200 q 541 111 468 48 q 394 -16 276 -16 q 150 -16 88 33 q 27 82 27 155 q 27 214 65 265 q 104 315 191 334 z m 354 394 q 392 407 427 439 q 462 471 462 510 q 462 546 430 572 q 397 597 338 597 q 279 597 247 571 q 215 545 215 507 q 215 469 249 443 q 282 417 354 394 z m 273 293 q 139 254 139 168 q 139 126 175 100 q 211 73 275 73 q 348 73 384 104 q 421 136 421 173 q 421 203 395 231 q 370 259 273 293 z"},"\\":{"x_min":0,"x_max":435,"ha":435,"o":"m 339 -173 l 100 667 l 168 667 l 405 -173 z"},"e":{"x_min":0,"x_max":521,"ha":521,"o":"m 460 140 q 392 -12 243 -12 q 146 -12 90 48 q 34 108 34 208 q 34 334 104 422 q 175 509 286 509 q 385 509 436 446 q 487 383 487 274 q 487 256 486 235 l 145 235 q 141 214 141 198 q 141 142 168 108 q 195 74 245 74 q 322 74 362 166 z m 384 306 q 384 432 286 432 q 185 432 156 306 z"},"b":{"x_min":0,"x_max":530,"ha":530,"o":"m 76 0 l 25 0 l 137 667 l 246 667 l 204 412 q 267 516 354 516 q 421 516 461 460 q 501 404 501 315 q 501 199 439 95 q 377 -9 269 -9 q 167 -9 123 84 z m 263 83 q 323 83 356 158 q 390 233 390 312 q 390 424 312 424 q 250 424 210 347 q 170 271 170 187 q 170 138 199 111 q 227 83 263 83 z"},"%":{"x_min":0,"x_max":748,"ha":748,"o":"m 71 472 q 71 549 116 615 q 161 680 235 680 q 292 680 331 638 q 371 596 371 520 q 371 443 326 376 q 280 309 204 309 q 148 309 110 354 q 71 399 71 472 z m 154 450 q 154 411 170 394 q 187 376 207 376 q 230 376 246 390 q 263 404 275 445 q 287 486 287 533 q 287 611 233 611 q 193 611 174 561 q 154 510 154 450 z m 182 0 l 107 0 l 595 667 l 668 667 z m 407 150 q 407 237 456 299 q 505 362 572 362 q 629 362 668 316 q 707 270 707 196 q 707 116 660 53 q 613 -11 542 -11 q 482 -11 445 33 q 407 78 407 150 z m 490 140 q 490 58 547 58 q 584 58 604 109 q 623 160 623 212 q 623 293 567 293 q 525 293 508 241 q 490 190 490 140 z"},"m":{"x_min":0,"x_max":853,"ha":853,"o":"m 745 0 l 630 0 l 680 300 q 687 337 687 352 q 687 418 617 418 q 508 418 474 218 l 437 0 l 328 0 l 376 289 q 384 339 384 358 q 384 419 323 419 q 275 419 233 373 q 191 327 166 171 l 137 0 l 25 0 l 108 497 l 218 497 l 199 386 q 221 443 266 478 q 310 512 360 512 q 474 512 490 395 q 561 512 666 512 q 725 512 764 475 q 803 438 803 379 q 803 350 792 282 z"},"#":{"x_min":0,"x_max":586,"ha":586,"o":"m 579 485 l 559 391 l 461 391 l 438 289 l 536 289 l 515 195 l 417 195 l 374 0 l 283 0 l 327 195 l 230 195 l 187 0 l 95 0 l 139 196 l 39 196 l 59 289 l 161 289 l 184 391 l 83 391 l 103 485 l 205 485 l 245 667 l 335 667 l 295 485 l 390 485 l 431 667 l 521 667 l 481 485 z m 369 391 l 274 391 l 251 289 l 347 289 z"},",":{"x_min":0,"x_max":241,"ha":241,"o":"m 35 -144 l -7 -144 l 76 0 l 21 0 l 41 122 l 158 122 l 139 10 z"},"n":{"x_min":0,"x_max":537,"ha":537,"o":"m 429 0 l 320 0 l 371 298 q 376 332 376 356 q 376 383 361 402 q 345 421 314 421 q 264 421 226 370 q 188 320 172 224 l 135 0 l 25 0 l 108 497 l 210 497 l 190 381 q 237 468 276 489 q 316 510 354 510 q 408 510 448 473 q 487 437 487 371 q 487 345 478 288 z"},"h":{"x_min":0,"x_max":538,"ha":538,"o":"m 430 0 l 321 0 l 370 293 q 378 345 378 356 q 378 422 315 422 q 271 422 232 385 q 193 349 176 245 l 135 0 l 25 0 l 137 667 l 246 667 l 204 410 q 265 511 355 511 q 412 511 451 479 q 490 447 490 377 q 490 357 479 293 z"},"z":{"x_min":0,"x_max":421,"ha":421,"o":"m 357 0 l -17 0 l -3 89 l 276 411 l 65 411 l 79 497 l 432 497 l 419 419 l 134 89 l 372 89 z"},"B":{"x_min":0,"x_max":611,"ha":611,"o":"m 32 0 l 144 667 l 377 667 q 440 667 481 654 q 521 641 553 600 q 585 559 585 501 q 585 382 460 343 q 564 297 564 192 q 564 123 516 62 q 468 0 329 0 z m 217 391 l 335 391 q 414 391 440 422 q 465 453 465 487 q 465 574 353 574 l 248 574 z m 168 98 l 304 98 q 357 98 383 107 q 409 116 426 141 q 443 167 443 203 q 443 236 426 260 q 408 284 385 291 q 362 299 323 299 l 202 299 z"},"K":{"x_min":0,"x_max":617,"ha":617,"o":"m 559 0 l 433 0 l 334 334 l 179 165 l 151 0 l 32 0 l 143 667 l 263 667 l 214 376 q 212 368 199 306 q 216 333 236 355 l 518 667 l 646 667 l 427 429 z"},"R":{"x_min":0,"x_max":639,"ha":639,"o":"m 551 0 l 423 0 l 353 273 l 197 273 l 151 0 l 32 0 l 143 667 l 394 667 q 469 667 513 653 q 557 639 592 591 q 627 544 627 483 q 627 417 588 362 q 550 306 469 288 z m 213 371 l 378 371 q 455 371 479 405 q 503 438 503 476 q 503 508 486 531 q 469 554 446 562 q 423 569 377 569 l 246 569 z"},"T":{"x_min":0,"x_max":461,"ha":461,"o":"m 514 562 l 345 562 l 250 0 l 128 0 l 222 562 l 53 562 l 70 667 l 532 667 z"},"P":{"x_min":0,"x_max":597,"ha":597,"o":"m 156 0 l 32 0 l 143 667 l 322 667 q 409 667 449 663 q 489 659 527 637 q 565 614 588 572 q 612 530 612 478 q 612 408 574 355 q 536 301 486 284 q 435 267 362 267 l 201 267 z m 251 569 l 218 365 l 336 365 q 398 365 423 373 q 448 381 467 408 q 486 436 486 474 q 486 510 469 533 q 452 557 429 563 q 405 569 345 569 z"},"|":{"x_min":0,"x_max":500,"ha":500,"o":"m 208 667 l 321 667 l 321 -167 l 208 -167 z"},"t":{"x_min":0,"x_max":321,"ha":321,"o":"m 258 -1 q 208 -8 188 -8 q 119 -8 87 23 q 55 54 55 98 q 55 121 66 188 l 104 407 l 30 407 l 45 497 l 120 497 l 150 630 l 250 637 l 226 497 l 333 497 l 318 407 l 211 407 l 174 186 q 167 145 167 133 q 167 86 237 86 q 252 86 273 89 z"},"M":{"x_min":0,"x_max":797,"ha":797,"o":"m 683 0 l 563 0 l 665 607 l 381 0 l 316 0 l 226 602 l 125 0 l 32 0 l 144 667 l 327 667 l 396 219 l 599 667 l 794 667 z"},"g":{"x_min":0,"x_max":507,"ha":507,"o":"m 65 47 q 23 76 23 124 q 23 160 43 188 q 62 215 121 245 q 65 285 65 347 q 65 423 124 466 q 183 509 287 509 q 323 509 348 501 q 372 574 406 600 q 440 625 494 625 q 509 625 527 623 l 526 538 q 500 540 490 540 q 463 540 438 531 q 412 522 397 483 q 474 445 474 365 q 474 295 419 250 q 364 205 263 205 q 220 205 166 219 q 122 196 122 158 q 122 137 137 125 q 153 113 201 113 l 260 113 q 347 113 387 99 q 427 84 450 53 q 473 21 473 -15 q 473 -76 413 -127 q 354 -177 206 -177 q -14 -177 -14 -61 q -14 -21 7 3 q 27 26 65 47 z m 262 270 q 310 270 336 296 q 362 321 362 365 q 362 438 282 438 q 234 438 207 413 q 179 387 179 345 q 179 270 262 270 z m 115 22 q 83 -4 83 -30 q 83 -63 119 -84 q 155 -105 227 -105 q 367 -105 367 -30 q 367 -1 345 6 q 323 13 233 13 q 140 13 115 22 z"},"j":{"x_min":0,"x_max":248,"ha":248,"o":"m 233 556 l 118 556 l 138 673 l 253 673 z m 223 497 l 147 44 q 132 -47 114 -91 q 96 -134 52 -161 q 8 -188 -58 -188 q -98 -188 -133 -182 l -127 -88 q -98 -94 -73 -94 q -18 -94 0 -69 q 18 -43 30 25 l 108 497 z"},"i":{"x_min":0,"x_max":248,"ha":248,"o":"m 233 554 l 118 554 l 138 673 l 253 673 z m 140 0 l 25 0 l 108 497 l 223 497 z"},"y":{"x_min":0,"x_max":456,"ha":456,"o":"m -28 -176 l -23 -82 q 5 -86 42 -86 q 77 -86 100 -72 q 123 -57 141 -18 l 160 22 l 38 497 l 155 497 l 230 155 l 395 497 l 490 497 l 235 -18 q 200 -89 181 -116 q 162 -144 125 -162 q 89 -181 31 -181 q 4 -181 -28 -176 z"},"@":{"x_min":0,"x_max":733,"ha":733,"o":"m 570 508 l 533 281 q 528 250 528 233 q 528 203 558 203 q 596 203 630 255 q 664 307 664 377 q 664 485 587 551 q 511 617 401 617 q 282 617 200 534 q 118 452 118 332 q 118 217 194 136 q 271 55 406 55 q 511 55 619 112 l 645 46 q 529 -15 407 -15 q 227 -15 132 90 q 38 195 38 329 q 38 479 145 581 q 252 682 401 682 q 543 682 638 597 q 733 511 733 383 q 733 285 677 209 q 621 134 543 134 q 515 134 490 148 q 466 162 456 185 q 414 132 353 132 q 292 132 251 183 q 210 233 210 315 q 210 399 257 458 q 303 518 380 518 q 447 518 480 474 l 486 508 z m 367 212 q 409 212 439 254 q 469 296 469 348 q 469 392 447 414 q 424 437 388 437 q 344 437 321 403 q 297 369 297 312 q 297 265 317 239 q 337 212 367 212 z"},".":{"x_min":0,"x_max":241,"ha":241,"o":"m 137 0 l 21 0 l 41 122 l 158 122 z"},"p":{"x_min":0,"x_max":528,"ha":528,"o":"m 105 -173 l -4 -173 l 108 497 l 206 497 l 189 394 q 250 513 343 513 q 413 513 457 457 q 500 400 500 304 q 500 184 441 85 q 382 -14 288 -14 q 186 -14 149 88 z m 267 75 q 324 75 355 147 q 386 219 386 295 q 386 424 308 424 q 249 424 209 354 q 169 284 169 199 q 169 137 198 106 q 227 75 267 75 z"},"X":{"x_min":0,"x_max":552,"ha":552,"o":"m 511 0 l 379 0 l 273 255 l 81 0 l -42 0 l 226 346 l 87 667 l 219 667 l 312 444 l 479 667 l 599 667 l 357 356 z"},"*":{"x_min":0,"x_max":586,"ha":586,"o":"m 325 670 l 402 657 l 367 491 l 534 523 l 546 445 l 376 427 l 458 278 l 388 243 l 319 398 l 203 274 l 147 330 l 274 444 l 120 517 l 156 586 l 304 501 z"},"Y":{"x_min":0,"x_max":518,"ha":518,"o":"m 290 0 l 164 0 l 211 281 l 42 667 l 179 667 l 297 378 l 486 667 l 602 667 l 335 275 z"},"c":{"x_min":0,"x_max":478,"ha":478,"o":"m 443 147 q 373 -11 232 -11 q 145 -11 90 48 q 35 107 35 213 q 35 333 103 422 q 170 511 273 511 q 351 511 403 466 q 455 421 468 338 l 375 320 q 355 417 278 417 q 220 417 184 352 q 148 287 148 201 q 148 136 175 109 q 203 82 240 82 q 313 82 352 180 z"},"!":{"x_min":0,"x_max":247,"ha":247,"o":"m 135 186 l 84 186 l 101 667 l 242 667 z m 142 0 l 22 0 l 42 124 l 163 124 z"},"/":{"x_min":0,"x_max":435,"ha":435,"o":"m -45 -173 l -119 -173 l 400 667 l 475 667 z"},"[":{"x_min":0,"x_max":293,"ha":293,"o":"m 194 -119 l 185 -173 l -3 -173 l 138 667 l 326 667 l 316 612 l 210 612 l 88 -119 z"},"6":{"x_min":0,"x_max":586,"ha":586,"o":"m 581 509 l 473 491 q 453 593 356 593 q 277 593 230 510 q 184 426 174 334 q 230 432 344 432 q 425 432 484 370 q 542 309 542 216 q 542 121 474 52 q 406 -18 303 -18 q 193 -18 124 60 q 54 137 54 271 q 54 420 136 552 q 217 684 361 684 q 454 684 510 635 q 567 586 581 509 z m 298 73 q 351 73 390 112 q 428 151 428 210 q 428 266 390 301 q 351 335 303 335 q 249 335 211 296 q 174 257 174 203 q 174 156 207 114 q 239 73 298 73 z"},"r":{"x_min":0,"x_max":347,"ha":347,"o":"m 135 0 l 25 0 l 108 497 l 209 497 l 187 361 q 250 510 358 510 q 363 510 372 510 l 357 388 q 341 389 333 389 q 292 389 257 367 q 221 346 200 309 q 180 273 167 190 z"},"2":{"x_min":0,"x_max":586,"ha":586,"o":"m 499 0 l 5 0 l 21 122 q 122 178 238 255 q 354 332 394 382 q 435 432 435 484 q 435 528 404 557 q 374 586 330 586 q 277 586 237 549 q 196 512 181 446 l 77 491 q 112 587 180 639 q 248 690 333 690 q 429 690 493 631 q 557 573 557 485 q 557 413 518 353 q 479 292 358 221 q 237 149 136 106 l 517 106 z"},"{":{"x_min":0,"x_max":293,"ha":293,"o":"m 105 246 q 150 221 150 165 q 150 154 146 129 l 118 -36 q 114 -60 114 -72 q 114 -93 129 -105 q 143 -117 202 -117 l 192 -173 l 148 -173 q 85 -173 55 -151 q 25 -128 25 -72 q 25 -57 29 -32 l 57 135 q 61 155 61 166 q 61 213 16 224 l 24 275 q 83 287 94 357 l 124 532 q 136 604 176 636 q 215 667 292 667 q 306 667 333 666 l 323 610 q 262 610 242 595 q 221 579 213 532 l 185 362 q 170 274 105 246 z"},"9":{"x_min":0,"x_max":586,"ha":586,"o":"m 137 153 q 173 75 252 75 q 329 75 378 151 q 427 228 442 345 q 385 237 272 237 q 188 237 131 295 q 75 353 75 443 q 75 544 143 615 q 211 685 320 685 q 420 685 490 611 q 559 537 559 401 q 559 244 474 114 q 390 -16 247 -16 q 166 -16 110 24 q 55 64 37 120 z m 307 332 q 362 332 400 374 q 437 416 437 471 q 437 522 402 557 q 367 593 318 593 q 263 593 225 552 q 188 511 188 456 q 188 402 222 367 q 256 332 307 332 z"}," ":{"x_min":0,"x_max":250,"ha":250,"o":""},"I":{"x_min":0,"x_max":270,"ha":270,"o":"m 155 0 l 32 0 l 143 667 l 267 667 z"},"H":{"x_min":0,"x_max":646,"ha":646,"o":"m 531 0 l 412 0 l 460 289 l 199 289 l 151 0 l 32 0 l 143 667 l 263 667 l 217 394 l 478 394 l 523 667 l 643 667 z"},"4":{"x_min":0,"x_max":586,"ha":586,"o":"m 407 0 l 292 0 l 317 151 l 27 151 l 44 258 l 400 688 l 522 688 l 449 251 l 552 251 l 535 151 l 432 151 z m 337 251 l 386 533 q 390 554 393 560 q 365 519 343 492 l 142 249 q 168 251 188 251 z"},"~":{"x_min":0,"x_max":586,"ha":586,"o":"m 128 241 l 65 282 q 97 358 131 386 q 166 414 212 414 q 247 414 319 386 q 384 360 408 360 q 455 360 485 416 l 550 378 q 495 250 395 250 q 367 250 274 286 q 225 305 205 305 q 159 305 128 241 z"},"D":{"x_min":0,"x_max":640,"ha":640,"o":"m 32 0 l 143 667 l 339 667 q 407 667 448 654 q 490 642 528 607 q 567 572 591 511 q 615 450 615 371 q 615 277 580 196 q 545 114 495 70 q 445 26 398 13 q 351 0 262 0 z m 170 101 l 277 101 q 330 101 362 115 q 394 128 424 162 q 453 196 471 259 q 489 322 489 389 q 489 443 470 487 q 452 531 417 550 q 381 568 321 568 l 249 568 z"},"^":{"x_min":0,"x_max":500,"ha":500,"o":"m 144 343 l 25 343 l 190 670 l 339 670 l 504 343 l 385 343 l 264 580 z"},"0":{"x_min":0,"x_max":586,"ha":586,"o":"m 276 -19 q 161 -19 104 68 q 46 154 46 273 q 46 423 126 553 q 206 684 347 684 q 440 684 505 610 q 570 537 570 388 q 570 322 544 228 q 519 133 448 57 q 377 -19 276 -19 z m 277 73 q 371 73 413 198 q 456 324 456 432 q 456 510 424 552 q 393 593 337 593 q 249 593 206 470 q 162 348 162 235 q 162 158 193 115 q 223 73 277 73 z"},"F":{"x_min":0,"x_max":497,"ha":497,"o":"m 154 0 l 32 0 l 143 667 l 553 667 l 536 562 l 248 562 l 218 382 l 457 382 l 440 283 l 201 283 z"},"`":{"x_min":0,"x_max":500,"ha":500,"o":"m 214 726 l 382 619 l 358 567 l 176 663 z"},"k":{"x_min":0,"x_max":542,"ha":542,"o":"m 494 0 l 376 0 l 290 265 l 159 144 l 135 0 l 25 0 l 137 667 l 246 667 l 179 265 l 429 497 l 546 497 l 377 340 z"},"u":{"x_min":0,"x_max":529,"ha":529,"o":"m 421 0 l 319 0 l 337 108 q 274 -9 169 -9 q 110 -9 79 28 q 48 66 48 112 q 48 136 61 210 l 108 497 l 218 497 l 166 188 q 159 146 159 136 q 159 112 174 98 q 189 84 214 84 q 248 84 283 112 q 318 140 333 177 q 347 214 359 287 l 395 497 l 504 497 z"},"]":{"x_min":0,"x_max":293,"ha":293,"o":"m 99 612 l 108 667 l 296 667 l 155 -173 l -33 -173 l -23 -119 l 83 -119 l 206 612 z"},"U":{"x_min":0,"x_max":605,"ha":605,"o":"m 608 667 l 536 236 q 522 151 500 104 q 479 58 421 21 q 363 -15 282 -15 q 232 -15 184 1 q 137 18 100 64 q 63 109 63 187 q 63 225 72 281 l 137 667 l 260 667 l 194 274 q 183 211 183 189 q 183 136 218 112 q 252 88 298 88 q 337 88 368 104 q 398 119 415 151 q 432 184 446 265 l 513 667 z"},"o":{"x_min":0,"x_max":525,"ha":525,"o":"m 247 -13 q 192 -13 140 12 q 89 36 62 89 q 35 142 35 215 q 35 334 104 421 q 174 507 287 507 q 380 507 436 445 q 491 383 491 278 q 491 170 425 79 q 358 -13 247 -13 z m 248 77 q 314 77 346 145 q 377 214 377 289 q 377 418 277 418 q 208 418 177 344 q 147 271 147 197 q 147 135 176 106 q 206 77 248 77 z"},"N":{"x_min":0,"x_max":649,"ha":649,"o":"m 534 0 l 439 0 l 211 501 l 128 0 l 32 0 l 143 667 l 267 667 l 474 209 l 551 667 l 646 667 z"},"+":{"x_min":0,"x_max":586,"ha":586,"o":"m 555 383 l 555 290 l 354 290 l 354 83 l 262 83 l 262 290 l 61 290 l 61 383 l 262 383 l 262 591 l 354 591 l 354 383 z"},"G":{"x_min":0,"x_max":647,"ha":647,"o":"m 542 0 l 491 0 l 471 90 q 417 -12 289 -12 q 182 -12 116 62 q 50 136 50 275 q 50 446 140 566 q 229 686 375 686 q 567 686 618 488 l 513 462 q 479 583 373 583 q 284 583 231 488 q 179 394 179 272 q 179 179 217 133 q 255 88 319 88 q 433 88 472 245 l 327 245 l 343 345 l 600 345 z"},"q":{"x_min":0,"x_max":530,"ha":530,"o":"m 393 -173 l 284 -173 l 327 86 q 270 -14 184 -14 q 111 -14 72 40 q 32 94 32 189 q 32 324 100 417 q 168 510 262 510 q 355 510 409 420 l 452 497 l 508 497 q 496 441 488 398 z m 221 75 q 284 75 322 153 q 359 231 359 310 q 359 346 351 367 q 343 388 323 403 q 302 418 271 418 q 208 418 176 342 q 144 266 144 182 q 144 75 221 75 z"},"d":{"x_min":0,"x_max":535,"ha":535,"o":"m 427 0 l 320 0 l 337 103 q 277 -11 180 -11 q 113 -11 73 42 q 32 96 32 192 q 32 324 94 419 q 156 513 251 513 q 354 513 387 415 l 429 667 l 539 667 z m 225 78 q 288 78 326 149 q 363 220 363 305 q 363 357 338 389 q 313 421 271 421 q 208 421 176 348 q 144 274 144 185 q 144 78 225 78 z"},"1":{"x_min":0,"x_max":586,"ha":586,"o":"m 541 0 l 39 0 l 57 104 l 250 104 l 321 528 q 293 501 235 483 q 177 464 133 464 q 127 464 117 465 l 134 567 q 309 582 383 691 l 460 691 l 362 104 l 559 104 z"},"5":{"x_min":0,"x_max":586,"ha":586,"o":"m 37 147 l 142 176 q 150 134 187 106 q 223 78 270 78 q 328 78 370 120 q 413 162 413 226 q 413 280 378 313 q 344 347 296 347 q 221 347 173 274 l 79 316 l 173 668 l 565 668 l 540 565 l 243 565 l 190 375 q 249 448 333 448 q 421 448 479 385 q 537 322 537 237 q 537 129 460 55 q 382 -18 274 -18 q 190 -18 124 27 q 58 72 37 147 z"}}}
